<svg width="458" height="170" viewBox="0 0 458 170" fill="none" xmlns="http://www.w3.org/2000/svg">
<path d="M322 85V125H436.077L457 103.701V85H322Z" fill="white" fill-opacity="0.9"/>
<path d="M457.5 84.5V103.906L457.356 104.052L436.435 125.351L436.287 125.5H321.5V84.5H457.5Z" stroke="white" stroke-opacity="0.9"/>
<path d="M400.387 114.387L409.387 105.387H441.887L433.887 114.387H400.387Z" fill="#A1A6B9" stroke="#A1A6B9"/>
<path d="M379.887 105.387H384.887L375.387 114.887H370.887L379.887 105.387Z" fill="#A1A6B9" stroke="#A1A6B9"/>
<path d="M389.387 105.387H394.387L384.887 114.887H380.387L389.387 105.387Z" fill="#A1A6B9" stroke="#A1A6B9"/>
<path d="M399.387 105.387H404.387L394.887 114.887H390.387L399.387 105.387Z" fill="#A1A6B9" stroke="#A1A6B9"/>
<path d="M446.387 105.387H451.387L441.887 114.887H437.387L446.387 105.387Z" fill="#A1A6B9" stroke="#A1A6B9"/>
<path d="M374.387 105.387H371.387V108.387L374.387 105.387Z" fill="#A1A6B9" stroke="#A1A6B9"/>
<path d="M132 116L141 125H132V116Z" fill="white" stroke="white"/>
<path d="M116.233 116.734C116.233 118.114 115.114 119.233 113.734 119.233L38.1796 119.259C35.9521 119.26 34.8363 116.567 36.4111 114.992L111.992 39.4111C113.567 37.836 116.26 38.9519 116.259 41.1795L116.233 116.734Z" stroke="white"/>
<path d="M49.552 52.5511C49.5526 50.8951 50.8949 49.5527 52.5509 49.5521L128.105 49.526C130.779 49.5251 132.118 52.7571 130.228 54.6473L54.6472 130.228C52.7569 132.118 49.5249 130.779 49.5258 128.106L49.552 52.5511Z" fill="#FFFEFE" fill-opacity="0.9"/>
<path d="M143.896 78.336C141.528 78.336 139.592 77.824 138.088 76.8C136.616 75.776 135.88 74.304 135.88 72.384V49.536C135.88 47.648 136.6 46.272 138.04 45.408C139.512 44.512 141.464 44.064 143.896 44.064C146.328 44.064 148.264 44.512 149.704 45.408C151.176 46.272 151.912 47.648 151.912 49.536V72.384C151.912 74.304 151.16 75.776 149.656 76.8C148.184 77.824 146.264 78.336 143.896 78.336ZM143.848 75.072C146.408 75.072 147.688 74.128 147.688 72.24V50.352C147.688 48.4 146.408 47.424 143.848 47.424C141.352 47.424 140.104 48.4 140.104 50.352V72.24C140.104 74.128 141.352 75.072 143.848 75.072ZM167.133 78.336C164.765 78.336 162.829 77.824 161.325 76.8C159.853 75.776 159.117 74.304 159.117 72.384V49.536C159.117 47.648 159.837 46.272 161.277 45.408C162.749 44.512 164.701 44.064 167.133 44.064C169.565 44.064 171.501 44.512 172.941 45.408C174.413 46.272 175.149 47.648 175.149 49.536V72.384C175.149 74.304 174.397 75.776 172.893 76.8C171.421 77.824 169.501 78.336 167.133 78.336ZM167.085 75.072C169.645 75.072 170.925 74.128 170.925 72.24V50.352C170.925 48.4 169.645 47.424 167.085 47.424C164.589 47.424 163.341 48.4 163.341 50.352V72.24C163.341 74.128 164.589 75.072 167.085 75.072ZM193.538 78V69.12H182.354V65.952L190.802 44.4H197.762V65.952H200.93V69.12H197.762V78H193.538ZM186.578 65.952H193.538V47.568H193.202L186.578 65.952Z" fill="#3A3A3A"/>
<path d="M337.467 119.667C335.494 119.667 333.881 119.241 332.627 118.387C331.401 117.534 330.787 116.307 330.787 114.707V95.6674C330.787 94.0941 331.387 92.9475 332.587 92.2275C333.814 91.4808 335.441 91.1075 337.467 91.1075C339.494 91.1075 341.107 91.4808 342.307 92.2275C343.534 92.9475 344.147 94.0941 344.147 95.6674V114.707C344.147 116.307 343.521 117.534 342.267 118.387C341.041 119.241 339.441 119.667 337.467 119.667ZM337.427 116.947C339.561 116.947 340.627 116.161 340.627 114.587V96.3474C340.627 94.7208 339.561 93.9075 337.427 93.9075C335.347 93.9075 334.307 94.7208 334.307 96.3474V114.587C334.307 116.161 335.347 116.947 337.427 116.947ZM353.631 119.387V94.0275H350.151V91.3874H357.151V119.387H353.631Z" fill="#A1A6B9"/>
<path d="M131.887 110.887V84.8875H317.887V124.887H145.887L131.887 110.887Z" fill="white" fill-opacity="0.9"/>
<path d="M318.387 84.3875V125.387H145.68L131.387 111.094V84.3875H318.387Z" stroke="white" stroke-opacity="0.9"/>
<path d="M308.387 86.3875H316.387V93.3875L314.387 91.8875V88.3875H310.387L308.387 86.3875Z" fill="#A1A6B9" stroke="#A1A6B9"/>
<path d="M309.887 90.8875H311.387V92.8875H309.887V90.8875Z" fill="#A1A6B9" stroke="#A1A6B9"/>
<path d="M158.617 115.387L150.877 94.9274L150.637 94.3874H152.377L160.357 115.147V115.387H158.617ZM142.657 115.387V115.147L150.637 94.3874H152.377L152.107 94.9274L144.397 115.387H142.657ZM145.597 109.537L146.287 107.947H156.907L157.567 109.537H145.597ZM165.139 115.387V113.767H171.709C173.209 113.767 174.349 113.367 175.129 112.567C175.929 111.767 176.329 110.677 176.329 109.297C176.329 107.977 175.919 106.937 175.099 106.177C174.279 105.417 173.159 105.037 171.739 105.037H165.139V103.447H171.199C172.039 103.447 172.759 103.287 173.359 102.967C173.979 102.627 174.449 102.177 174.769 101.617C175.109 101.057 175.279 100.437 175.279 99.7575C175.279 98.6375 174.929 97.7375 174.229 97.0575C173.549 96.3575 172.529 96.0075 171.169 96.0075H165.139V94.3874H171.169C173.029 94.3874 174.469 94.8874 175.489 95.8875C176.529 96.8875 177.049 98.1775 177.049 99.7575C177.049 100.457 176.879 101.127 176.539 101.767C176.219 102.407 175.779 102.957 175.219 103.417C174.659 103.857 174.039 104.177 173.359 104.377V103.837C174.299 103.977 175.119 104.317 175.819 104.857C176.519 105.377 177.069 106.027 177.469 106.807C177.869 107.567 178.069 108.397 178.069 109.297C178.069 111.137 177.509 112.617 176.389 113.737C175.269 114.837 173.709 115.387 171.709 115.387H165.139ZM164.209 115.387V94.3874H165.859V115.387H164.209ZM191.739 115.687C189.879 115.687 188.209 115.237 186.729 114.337C185.269 113.437 184.109 112.177 183.249 110.557C182.409 108.917 181.989 107.027 181.989 104.887C181.989 102.727 182.409 100.837 183.249 99.2175C184.109 97.5975 185.269 96.3375 186.729 95.4375C188.209 94.5375 189.879 94.0875 191.739 94.0875C193.599 94.0875 195.259 94.5375 196.719 95.4375C198.199 96.3375 199.359 97.6075 200.199 99.2474C201.039 100.867 201.459 102.747 201.459 104.887C201.459 107.047 201.039 108.937 200.199 110.557C199.359 112.177 198.199 113.437 196.719 114.337C195.259 115.237 193.599 115.687 191.739 115.687ZM191.739 114.097C193.259 114.097 194.619 113.717 195.819 112.957C197.039 112.197 197.999 111.127 198.699 109.747C199.419 108.367 199.779 106.747 199.779 104.887C199.779 103.007 199.419 101.377 198.699 99.9975C197.999 98.6175 197.039 97.5575 195.819 96.8175C194.619 96.0575 193.259 95.6775 191.739 95.6775C190.219 95.6775 188.849 96.0575 187.629 96.8175C186.429 97.5575 185.469 98.6175 184.749 99.9975C184.049 101.377 183.699 103.007 183.699 104.887C183.699 106.747 184.049 108.367 184.749 109.747C185.469 111.127 186.429 112.197 187.629 112.957C188.849 113.717 190.219 114.097 191.739 114.097ZM213.874 115.687C212.294 115.687 210.934 115.367 209.794 114.727C208.674 114.087 207.814 113.167 207.214 111.967C206.634 110.747 206.344 109.287 206.344 107.587V94.3874H207.994V107.647C207.994 109.707 208.494 111.297 209.494 112.417C210.494 113.537 211.954 114.097 213.874 114.097C215.794 114.097 217.254 113.537 218.254 112.417C219.274 111.297 219.784 109.707 219.784 107.647V94.3874H221.434V107.587C221.434 109.287 221.134 110.747 220.534 111.967C219.934 113.167 219.074 114.087 217.954 114.727C216.834 115.367 215.474 115.687 213.874 115.687ZM232.089 115.387V94.3874H233.739V115.387H232.089ZM225.489 95.9775V94.3874H240.309V95.9775H225.489Z" fill="#A1A6B9"/>
<path d="M143.534 146.517C142.928 146.517 142.382 146.405 141.896 146.179C141.411 145.954 141.012 145.638 140.7 145.23C140.388 144.823 140.176 144.355 140.063 143.826L140.674 143.67L140.804 143.696C140.908 144.121 141.09 144.494 141.35 144.814C141.61 145.135 141.927 145.386 142.299 145.568C142.681 145.742 143.088 145.828 143.521 145.828C143.998 145.828 144.418 145.755 144.782 145.607C145.146 145.451 145.432 145.235 145.64 144.957C145.857 144.68 145.965 144.355 145.965 143.982C145.965 143.497 145.818 143.129 145.523 142.877C145.237 142.617 144.852 142.422 144.366 142.292L142.585 141.798C141.901 141.608 141.381 141.313 141.025 140.914C140.67 140.507 140.492 140.035 140.492 139.497C140.492 139.029 140.614 138.622 140.856 138.275C141.099 137.929 141.433 137.656 141.857 137.456C142.291 137.257 142.789 137.157 143.352 137.157C143.898 137.157 144.392 137.261 144.834 137.469C145.285 137.677 145.653 137.972 145.939 138.353C146.225 138.735 146.416 139.181 146.511 139.692L145.9 139.822L145.757 139.796C145.636 139.198 145.359 138.726 144.925 138.379C144.492 138.024 143.968 137.846 143.352 137.846C142.72 137.846 142.208 137.998 141.818 138.301C141.428 138.596 141.233 138.999 141.233 139.51C141.233 139.9 141.372 140.23 141.649 140.498C141.927 140.767 142.334 140.975 142.871 141.122L144.652 141.616C145.302 141.79 145.805 142.076 146.16 142.474C146.524 142.864 146.706 143.35 146.706 143.93C146.706 144.45 146.572 144.905 146.303 145.295C146.043 145.677 145.675 145.976 145.198 146.192C144.722 146.409 144.167 146.517 143.534 146.517ZM149.776 146.387V137.287H150.491V146.387H149.776ZM150.153 146.387V145.698H155.418V146.387H150.153ZM150.153 142.123V141.434H155.158V142.123H150.153ZM150.153 137.976V137.287H155.418V137.976H150.153ZM162.165 146.517C161.368 146.517 160.657 146.322 160.033 145.932C159.418 145.542 158.932 144.996 158.577 144.294C158.23 143.592 158.057 142.773 158.057 141.837C158.057 140.893 158.23 140.074 158.577 139.38C158.932 138.678 159.418 138.132 160.033 137.742C160.657 137.352 161.368 137.157 162.165 137.157C163.023 137.157 163.781 137.387 164.44 137.846C165.107 138.297 165.606 138.947 165.935 139.796L165.35 139.965L165.207 139.939C164.921 139.255 164.518 138.735 163.998 138.379C163.478 138.024 162.876 137.846 162.191 137.846C161.524 137.846 160.934 138.011 160.423 138.34C159.912 138.67 159.513 139.133 159.227 139.731C158.941 140.329 158.798 141.031 158.798 141.837C158.798 142.643 158.941 143.345 159.227 143.943C159.513 144.541 159.912 145.005 160.423 145.334C160.934 145.664 161.524 145.828 162.191 145.828C162.876 145.828 163.478 145.651 163.998 145.295C164.518 144.94 164.921 144.42 165.207 143.735L165.35 143.709L165.935 143.878C165.606 144.728 165.107 145.382 164.44 145.841C163.781 146.292 163.023 146.517 162.165 146.517ZM170.889 146.387V137.287H171.604V146.387H170.889ZM168.029 137.976V137.287H174.451V137.976H168.029ZM180.504 146.517C179.698 146.517 178.974 146.322 178.333 145.932C177.7 145.542 177.198 144.996 176.825 144.294C176.461 143.584 176.279 142.765 176.279 141.837C176.279 140.901 176.461 140.082 176.825 139.38C177.198 138.678 177.7 138.132 178.333 137.742C178.974 137.352 179.698 137.157 180.504 137.157C181.31 137.157 182.029 137.352 182.662 137.742C183.303 138.132 183.806 138.683 184.17 139.393C184.534 140.095 184.716 140.91 184.716 141.837C184.716 142.773 184.534 143.592 184.17 144.294C183.806 144.996 183.303 145.542 182.662 145.932C182.029 146.322 181.31 146.517 180.504 146.517ZM180.504 145.828C181.163 145.828 181.752 145.664 182.272 145.334C182.801 145.005 183.217 144.541 183.52 143.943C183.832 143.345 183.988 142.643 183.988 141.837C183.988 141.023 183.832 140.316 183.52 139.718C183.217 139.12 182.801 138.661 182.272 138.34C181.752 138.011 181.163 137.846 180.504 137.846C179.845 137.846 179.252 138.011 178.723 138.34C178.203 138.661 177.787 139.12 177.475 139.718C177.172 140.316 177.02 141.023 177.02 141.837C177.02 142.643 177.172 143.345 177.475 143.943C177.787 144.541 178.203 145.005 178.723 145.334C179.252 145.664 179.845 145.828 180.504 145.828ZM187.743 146.387V137.287H188.458V146.387H187.743ZM188.146 142.552V141.863H190.928C191.561 141.863 192.05 141.69 192.397 141.343C192.752 140.988 192.93 140.516 192.93 139.926H193.684C193.684 140.715 193.437 141.352 192.943 141.837C192.449 142.314 191.777 142.552 190.928 142.552H188.146ZM192.93 139.926C192.93 139.328 192.752 138.856 192.397 138.509C192.05 138.163 191.561 137.989 190.928 137.989H188.146V137.287H190.928C191.777 137.287 192.449 137.53 192.943 138.015C193.437 138.492 193.684 139.129 193.684 139.926H192.93ZM192.956 146.387L190.577 142.383L191.227 142.071L193.723 146.283V146.387H192.956ZM199.438 147.622L203.871 136.455H204.638L200.205 147.622H199.438ZM214.205 146.517C213.407 146.517 212.697 146.322 212.073 145.932C211.457 145.542 210.972 144.996 210.617 144.294C210.27 143.592 210.097 142.773 210.097 141.837C210.097 140.893 210.27 140.074 210.617 139.38C210.972 138.678 211.457 138.132 212.073 137.742C212.697 137.352 213.407 137.157 214.205 137.157C215.063 137.157 215.821 137.387 216.48 137.846C217.147 138.297 217.645 138.947 217.975 139.796L217.39 139.965L217.247 139.939C216.961 139.255 216.558 138.735 216.038 138.379C215.518 138.024 214.915 137.846 214.231 137.846C213.563 137.846 212.974 138.011 212.463 138.34C211.951 138.67 211.553 139.133 211.267 139.731C210.981 140.329 210.838 141.031 210.838 141.837C210.838 142.643 210.981 143.345 211.267 143.943C211.553 144.541 211.951 145.005 212.463 145.334C212.974 145.664 213.563 145.828 214.231 145.828C214.915 145.828 215.518 145.651 216.038 145.295C216.558 144.94 216.961 144.42 217.247 143.735L217.39 143.709L217.975 143.878C217.645 144.728 217.147 145.382 216.48 145.841C215.821 146.292 215.063 146.517 214.205 146.517ZM220.875 146.387V137.287H221.59V146.387H220.875ZM225.079 146.387V137.287H225.794V146.387H225.079ZM225.456 142.188V141.499H230.201V142.188H225.456ZM225.456 137.976V137.287H230.539V137.976H225.456ZM234.72 146.387V137.742L235.084 137.937L232.887 139.705H232.783V138.899L234.759 137.287H235.435V146.387H234.72ZM238.635 146.387V145.763L242.145 142.162C242.457 141.842 242.709 141.556 242.899 141.304C243.099 141.044 243.242 140.793 243.328 140.55C243.424 140.308 243.471 140.052 243.471 139.783C243.471 139.419 243.385 139.094 243.211 138.808C243.038 138.514 242.8 138.28 242.496 138.106C242.193 137.933 241.833 137.846 241.417 137.846C241.001 137.846 240.629 137.942 240.299 138.132C239.97 138.323 239.706 138.596 239.506 138.951C239.316 139.307 239.22 139.74 239.22 140.251L239.077 140.277L238.505 140.134C238.505 139.536 238.635 139.016 238.895 138.574C239.155 138.124 239.506 137.777 239.948 137.534C240.39 137.283 240.88 137.157 241.417 137.157C241.963 137.157 242.444 137.274 242.86 137.508C243.276 137.742 243.601 138.059 243.835 138.457C244.078 138.856 244.199 139.307 244.199 139.809C244.199 140.13 244.147 140.433 244.043 140.719C243.939 141.005 243.77 141.304 243.536 141.616C243.311 141.92 243.008 142.266 242.626 142.656L239.48 145.906L239.363 145.698H244.511V146.387H238.635Z" fill="#3A3A3A"/>
<path d="M410.177 113.487C409.557 113.487 409 113.337 408.507 113.037C408.02 112.737 407.634 112.317 407.347 111.777C407.067 111.231 406.927 110.601 406.927 109.887C406.927 109.167 407.067 108.537 407.347 107.997C407.634 107.457 408.02 107.037 408.507 106.737C409 106.437 409.557 106.287 410.177 106.287C410.797 106.287 411.35 106.437 411.837 106.737C412.33 107.037 412.717 107.461 412.997 108.007C413.277 108.547 413.417 109.174 413.417 109.887C413.417 110.607 413.277 111.237 412.997 111.777C412.717 112.317 412.33 112.737 411.837 113.037C411.35 113.337 410.797 113.487 410.177 113.487ZM410.177 112.957C410.684 112.957 411.137 112.831 411.537 112.577C411.944 112.324 412.264 111.967 412.497 111.507C412.737 111.047 412.857 110.507 412.857 109.887C412.857 109.261 412.737 108.717 412.497 108.257C412.264 107.797 411.944 107.444 411.537 107.197C411.137 106.944 410.684 106.817 410.177 106.817C409.67 106.817 409.214 106.944 408.807 107.197C408.407 107.444 408.087 107.797 407.847 108.257C407.614 108.717 407.497 109.261 407.497 109.887C407.497 110.507 407.614 111.047 407.847 111.507C408.087 111.967 408.407 112.324 408.807 112.577C409.214 112.831 409.67 112.957 410.177 112.957ZM419.636 108.417C419.636 107.957 419.499 107.594 419.226 107.327C418.959 107.061 418.582 106.927 418.096 106.927H416.056V106.387H418.096C418.749 106.387 419.266 106.574 419.646 106.947C420.026 107.314 420.216 107.804 420.216 108.417H419.636ZM415.746 113.387V106.387H416.296V113.387H415.746ZM416.056 110.437V109.907H418.096C418.582 109.907 418.959 109.774 419.226 109.507C419.499 109.234 419.636 108.871 419.636 108.417H420.216C420.216 109.024 420.026 109.514 419.646 109.887C419.266 110.254 418.749 110.437 418.096 110.437H416.056ZM422.544 113.387V106.387H423.094V113.387H422.544ZM422.834 113.387V112.857H426.884V113.387H422.834ZM422.834 110.107V109.577H426.684V110.107H422.834ZM422.834 106.917V106.387H426.884V106.917H422.834ZM433.904 113.387L429.264 106.537V106.387H429.814L434.454 113.237V113.387H433.904ZM429.264 113.387V106.387H429.814V113.387H429.264ZM433.904 113.387V106.387H434.454V113.387H433.904Z" fill="white"/>
<path d="M48.8872 148.387V135.887H133.387V140.887L126.387 148.387H48.8872Z" fill="white" fill-opacity="0.8"/>
<path d="M133.887 135.387V141.085L133.752 141.228L126.752 148.728L126.604 148.887H48.3872V135.387H133.887Z" stroke="white" stroke-opacity="0.8"/>
<path d="M64.3142 146.556C63.4822 146.556 62.7412 146.361 62.0912 145.971C61.4412 145.573 60.9299 145.018 60.5572 144.307C60.1932 143.597 60.0112 142.769 60.0112 141.824C60.0112 140.888 60.1932 140.069 60.5572 139.367C60.9212 138.657 61.4282 138.106 62.0782 137.716C62.7369 137.318 63.4909 137.118 64.3402 137.118C65.2242 137.118 65.9999 137.344 66.6672 137.794C67.3345 138.245 67.8199 138.86 68.1232 139.64L67.2002 139.913L67.0572 139.887C66.7972 139.341 66.4332 138.925 65.9652 138.639C65.5059 138.345 64.9729 138.197 64.3662 138.197C63.7422 138.197 63.1875 138.345 62.7022 138.639C62.2169 138.934 61.8355 139.354 61.5582 139.9C61.2809 140.446 61.1422 141.083 61.1422 141.811C61.1422 142.557 61.2809 143.207 61.5582 143.761C61.8355 144.307 62.2169 144.732 62.7022 145.035C63.1962 145.33 63.7552 145.477 64.3792 145.477C64.9599 145.477 65.4755 145.343 65.9262 145.074C66.3769 144.806 66.7279 144.45 66.9792 144.008C67.2305 143.566 67.3562 143.085 67.3562 142.565V142.084L67.9152 142.5H64.5352V141.434H68.2012L68.3832 141.616V146.387H67.3692V144.242H67.7592C67.5599 144.745 67.2825 145.17 66.9272 145.516C66.5805 145.863 66.1819 146.123 65.7312 146.296C65.2805 146.47 64.8082 146.556 64.3142 146.556ZM77.3369 146.387L74.0479 137.56L73.9569 137.287H75.0619L78.5199 146.283V146.387H77.3369ZM70.4989 146.387V146.283L73.9569 137.287H75.0619L74.9709 137.56L71.6819 146.387H70.4989ZM71.8379 144.047L72.2279 142.968H76.9209L77.3109 144.047H71.8379ZM81.9608 146.387V137.287H83.0788V146.387H81.9608ZM79.1398 138.353V137.287H85.8868V138.353H79.1398ZM88.3878 146.387V137.287H89.4928V146.387H88.3878ZM88.9598 146.387V145.321H94.1988V146.387H88.9598ZM88.9598 142.318V141.239H93.9128V142.318H88.9598ZM88.9598 138.353V137.287H94.1988V138.353H88.9598ZM100.554 146.387V145.373L106.04 137.742L106.235 138.353H100.632V137.287H106.976V138.301L101.477 145.932L101.269 145.321H107.041V146.387H100.554ZM110.802 146.387V137.794L111.348 138.262L109.151 140.017H109.047V138.743L110.841 137.287H111.907V146.387H110.802Z" fill="#A1A6B9"/>
</svg>
